<?xml version="1.0" encoding="UTF-8"?>
<svg id="Ebene_1" data-name="Ebene 1" xmlns="http://www.w3.org/2000/svg" viewBox="0 0 2339.99 2339.78">
  <defs>
    <style>
      .cls-1 {
        fill: #fff;
        stroke-width: 0px;
      }
    </style>
  </defs>
  <path class="cls-1" d="M0,1182.57v-25.04c3.99-4.49,3.92-10.03,3.82-15.49-.44-25.38,1.41-50.64,3.7-75.89,5.55-61.16,15.28-121.64,30.44-181.14,17.7-69.49,41.24-136.96,71.17-202.22,25.34-55.26,54.85-108.17,88.24-158.89,37.84-57.49,80.97-110.88,128.34-160.77,31.39-33.06,65.06-63.74,99.97-93.07,35.44-29.77,72.93-56.73,111.74-81.9,55.86-36.24,114.4-67.47,175.71-93.45,60.99-25.85,123.69-46.55,188.16-61.9,79.27-18.87,159.59-29.38,241.07-30.83,5.14-.09,10.29,0,15.18-1.97h26.96c3.64,1.42,7.45,1.95,11.33,1.9,25.71-.32,51.29,1.63,76.87,3.85,37.44,3.25,74.69,7.86,111.61,14.89,59.68,11.36,118.26,26.73,175.61,46.97,65.27,23.04,127.89,51.78,188.16,85.65,50.44,28.35,98.32,60.66,143.89,96.32,30.59,23.94,60.17,49.06,87.65,76.58,11.57,11.58,23.11,23.19,34.73,34.72,30.12,29.91,57.27,62.4,83.15,95.95,38.11,49.39,71.88,101.59,101.65,156.46,31.01,57.14,56.93,116.48,78.03,177.89,25.42,73.98,43.24,149.8,53.07,227.46,5.89,46.51,9.6,93.15,9.73,140.09.12,42.39-1.24,84.67-5.6,126.86-4.33,41.86-10.32,83.45-19.05,124.62-11.6,54.71-26.71,108.42-46.03,160.93-21.99,59.76-48.27,117.54-79.61,172.98-22.61,39.99-47.43,78.56-74.5,115.69-21.01,28.82-43.52,56.39-66.87,83.31-19.78,22.82-41.77,43.51-62.87,65.06-24.52,25.03-50.92,47.94-78.02,70.06-40.84,33.33-83.96,63.49-129.02,90.82-52.5,31.84-107.25,59.25-164.03,82.7-80.77,33.36-164.35,56.73-250.4,71.4-32.6,5.56-65.5,8.75-98.41,11.96-32.62,3.18-65.36,2.81-98.02,4.59-8.9.49-17.92-1.57-26.87-1.46-33.79.45-67.3-3.26-100.79-6.76-59.18-6.19-117.4-17.7-174.79-33.33-71.1-19.37-139.82-45.14-206.11-77.4-54.96-26.74-107.23-58.06-157.44-92.81-52.63-36.43-101.41-77.54-147.24-122.19-29.91-29.13-57.94-59.99-84.57-92.13-51.6-62.25-95.97-129.34-133.5-200.91-23.88-45.52-44.62-92.46-62.19-140.81-23.08-63.51-41.26-128.32-52.71-194.93-10.29-59.83-17.87-119.97-17.5-180.86.03-4.88-.35-9.66-3.82-13.57ZM1801.05,502.57c-8.99,0-17.95.23-26.93.97-7.26.6-9.35-2.1-7.85-9.22,1.05-5.02,2.62-9.93,3.81-14.92,6.94-29,9.39-58.12,3.86-87.75-9.84-52.73-37.64-95.22-76.08-130.88-43.53-40.39-96.05-64.63-153.04-79.68-12.8-3.38-25.89-4.71-39.13-3.9-10,.61-19.82,2.19-28.77,7.02-15.08,8.14-24.95,28.06-8.75,46.17,1.92,2.15,3.9,4.27,6.02,6.22,24.83,22.75,49.46,45.69,72.27,70.51,18.37,19.98,32.24,42.24,37.07,69.49,3.41,19.19-2.06,34.83-17.25,47.03-5,4.02-10.19,7.81-15.13,11.9-9.72,8.05-12.27,8.28-22.6.49-15.13-11.4-30.34-22.65-46.62-32.41-28.68-17.2-57.99-33.08-90.03-43.21-17.7-5.6-19.96-9.45-16.73-28.14,1.97-11.36,4.59-22.8,3.45-34.39-3.97-40.24-17.69-76.73-43-108.56-4.79-6.03-9.84-11.86-16.15-16.43-12.03-8.72-23.65-8.56-35.42.55-3.58,2.77-6.52,6.16-9.27,9.74-3.91,5.09-7.76,10.24-11.85,15.18-20.61,24.91-46.72,38.82-79.44,38.27-20.09-.34-39.69,2.2-59.07,7.1-49.63,12.55-91.11,36.73-115.5,83.69-6.43,12.39-14.92,19.47-28.46,21.08-1.9.23-3.74.91-5.6,1.39-33.77,8.58-65.84,21.65-96.73,37.56-23.71,12.21-46.08,26.71-68.07,41.79-3.96,2.71-8.08,5.27-12.37,7.41-5.43,2.71-11.23,3.08-16.68.06-11.7-6.48-21.41-15.25-28.71-26.49-3.39-5.22-4.68-11.13-4.96-17.38-.82-18.5,4-35.56,12.76-51.68,9.93-18.27,24.18-33.16,38.23-48.09,19.81-21.05,41.79-39.83,63.58-58.78,17.81-15.5,15.64-38.64-4.83-50.34-4.5-2.57-9.31-4.27-14.4-5.29-9.86-1.97-19.8-2.37-29.7-.83-86.37,13.43-158.81,53-214.05,120.44-45.05,54.99-57.51,118.46-36.81,187.41.92,3.07,1.96,6.13,2.56,9.27.72,3.74-.97,6.27-4.76,7.04-1.87.38-3.83.54-5.74.49-32.77-.88-65.43,1.01-98.04,3.92-15.38,1.37-30.68,3.48-45.03,9.42-8.06,3.33-16.09,6.35-24.71,7.76-9.72,1.59-18.25,6.11-26.25,11.53-9.98,6.76-15.79,16.47-15,28.53.88,13.39,1.96,26.97,6.12,39.81,5.74,17.7,12.17,35.18,18.65,52.63,5.47,14.71,10.01,29.89,19.15,42.97,14.33,20.51,28.3,41.29,43.25,61.35,11.69,15.68,24.84,30.12,40.13,42.66,29.83,24.47,63.32,38.65,102.25,38.87,2.24.01,4.52.02,6.72.35,5.97.91,8.6,3.28,9.29,9.26.52,4.43.57,9,.17,13.45-2.52,27.56-2.49,55.11.22,82.65,4.39,44.65,12.7,88.33,32.86,128.93,3.53,7.1,2.68,12.87-2.48,18.44-1.31,1.41-2.61,2.83-3.87,4.29-16.54,19.17-34.39,37.37-43.73,61.69-2.81,7.32-8.84,11.76-16.18,14.11-4.57,1.46-9.29,2.52-14.02,3.37-13.66,2.47-26.94,6.38-39.49,12.14-51.33,23.53-89.33,60.57-112.21,112.52-2.85,6.48-6.92,11.17-13.42,14.31-38.13,18.44-66.95,46.93-88.88,82.84-19.69,32.23-33.6,67.08-46.66,102.31-1.32,3.56-1.89,7.46-2.37,11.27-6.64,52.75,4.53,102.32,28.64,148.95,17.37,33.62,40.95,62.67,69.71,87.61,44.78,38.82,96.16,64.68,153.06,80.1,34.86,9.45,70.43,14.1,106.53,14.83,10.38.21,11.61,2.24,6.86,11.46-7.5,14.55-14.99,29.1-23.01,43.37-5.07,9.02-9.28,18.29-12.25,28.17-12.49,41.49-25.05,82.95-37.51,124.44-3.91,13.03-3.28,14.58,7.81,22.47,59.48,42.34,121.65,80.04,188.17,110.5,56.78,26,115.25,47.05,175.65,62.79,58.21,15.17,117.3,25.37,177.24,30.42,21.75,1.83,41.23,8.99,58.56,22.21,4.08,3.11,8.38,5.93,12.6,8.85,7,4.84,14.24,5.01,21.87,1.41,7.32-3.44,14.2-7.6,20.28-12.84,12.66-10.9,27.47-16.24,43.83-17.96,14.36-1.51,28.74-2.87,43.07-4.59,86.08-10.29,169.96-29.8,251.52-59.36,85.6-31.03,165.75-72.41,240.2-124.83,6.03-4.25,11.83-8.83,17.72-13.28,4.33-3.27,5.73-7.56,4.27-12.77-.6-2.16-1.24-4.32-1.89-6.47-12.61-41.79-25.36-83.53-37.74-125.39-3.22-10.87-7.69-21.01-13.19-30.88-7.97-14.29-15.56-28.8-23.05-43.35-4.54-8.82-3.5-10.47,6.66-10.51,9.97-.04,19.86-.97,29.78-1.72,71.6-5.42,137.75-27.12,197.2-67.54,49.3-33.52,88.03-76.61,111.73-131.91,27.89-65.08,29.16-130.73,2.47-196.62-5.31-13.11-11.64-25.77-18.51-38.09-13.68-24.54-30.35-46.74-52.08-64.96-13.6-11.4-28.14-21.31-43.69-29.73-6.25-3.38-10.73-7.92-13.54-14.37-1.54-3.52-3.33-6.95-5.17-10.33-16.73-30.77-37.29-58.28-65.78-79.38-27.61-20.44-58.4-33.52-91.94-39.93-11.02-2.11-18.6-6.46-23.47-17.04-5.35-11.64-13-22.11-20.56-32.51-7.55-10.4-15.54-20.46-24.24-29.9-5.82-6.31-6.67-12.82-2.96-20.26,1-2.01,1.97-4.04,2.94-6.06,9.77-20.35,17.03-41.55,21.71-63.63,10.34-48.73,11.13-98.01,8.6-147.49-.68-13.2,1.12-15.4,13.99-15.74,1.28-.03,2.57-.04,3.85-.03,50.79.25,91.79-21.64,126.02-57.24,23.64-24.59,43.43-52.26,59.79-82.34,22.46-41.3,37.38-85.1,44.36-131.56,2.72-18.09-3.1-29.43-18.85-38.5-19.72-11.36-41.6-17.73-63.43-21.71-34.04-6.21-68.77-8.35-103.51-8.05Z"/>
  <path class="cls-1" d="M665.92,1224.01c-1.24-4.5-4.78-5.79-7.66-7.58-8.01-4.99-16.9-7.72-26.12-9.41-4.73-.87-9.56-1.32-14.24-2.38-6.85-1.56-8.27-4.02-5.4-10.22,9.47-20.45,20.32-40.1,35.25-57.18,7.4-8.46,11.35-8.6,18.35.43,27.3,35.26,63.81,57.93,103.33,76.69,22.06,10.47,44.49,20,67.41,28.41,25.37,9.31,51.4,16.24,77.84,21.69,2.72.56,5.53,1.93,9.35-.29-5.5-4.5-11.38-7.56-17.24-10.45-7.74-3.81-14.3-8.49-17.4-17-1.98-5.43-6.82-7.15-11.85-8.81-35.83-11.85-70.09-27.09-100.96-49.05-78.26-55.66-124.55-130.43-135.28-226.56-2.25-20.15-3.15-40.44-3.04-60.51.35-64.89,9.58-128.55,32.16-189.83,21.48-58.31,51.09-112.09,90.27-160.37,57.85-71.29,130.53-120.77,218.67-147.13,7.37-2.2,14.94-3.74,22.44-5.48,7-1.61,13.89-2.5,20.34,2.14,3.17,2.28,5.45.54,6.72-2.64,1.19-2.98,2.22-6.02,3.24-9.06,15.44-46.27,47.88-75,93.54-89.39,23.11-7.29,46.89-9.44,71.33-8.01,29.42,1.72,55.62-7.97,77.51-28.1,6.14-5.64,11.74-11.86,17.71-17.69,7.18-7.01,9.73-6.84,14.84,1.32,26.62,42.47,31.38,100.47-.06,146.57-22.67,33.24-55.42,49.77-95.02,52.83-17.95,1.39-35.95.5-53.44-4.8-2.37-.72-4.89-1.78-7.89-.1-.37,4.03,2.91,5.91,5.52,7.86,6.95,5.2,14.42,9.55,22.37,13.13,50.59,22.8,118.68,10.64,159.25-39.6,14.43-17.87,18.68-18.64,40.41-10.41,49.48,18.75,93.8,45.83,133.48,80.84,63.15,55.72,109.08,123.11,138.65,201.85,21.82,58.1,34.87,118.26,39.93,179.92,3.36,40.97,2.75,82.12-7.19,122.49-12.31,49.96-33.08,95.85-66.91,135.05-33.49,38.81-74.41,67.67-121.52,87.71-14.46,6.15-29.21,11.66-43.95,17.13-6.38,2.37-11.59,5.19-12.77,12.75-.63,4.04-3.96,6.44-7.17,8.68-5.27,3.67-10.57,7.29-15.73,11.11-2.23,1.65-5.06,2.94-5.6,6.75,3.39,2.19,6.66.21,9.78-.69,24.37-7.05,48.37-15.23,72.11-24.16,40.65-15.3,79.98-33.32,116.71-56.71,18.82-11.98,35.76-26.06,49.9-43.41,1.82-2.24,3.75-4.4,5.8-6.43,6.88-6.81,10.02-6.63,16.43.94,2.28,2.69,4.29,5.61,6.46,8.39,9.88,12.71,18.25,26.38,26,40.46,1.08,1.97,2.14,3.97,2.95,6.05,2.99,7.68,1.45,10.74-6.79,11.94-11.85,1.73-23.32,4.49-33.98,10.09-3.32,1.74-7.08,2.95-9.29,6.42,2.12,3.13,4.88,1.79,7.18,1.51,20.77-2.58,41.63-3.03,62.48-2.31,31.2,1.07,61.2,7.46,88.63,22.98,33.88,19.18,55.9,48.38,69.62,84.33,5.16,13.52,9.42,27.3,12.16,41.53.42,2.2.83,4.45,1.63,6.53,1.64,4.28,3.69,5.02,6.95,1.66,3.2-3.3,6.04-3.94,10.22-2.26,4.08,1.64,5.11-.97,4.72-4.54-.04-.32-.13-.63-.16-.95-.35-3.01-2.99-6.59.61-8.8,3.64-2.24,6.67.72,9.47,2.79,56.68,41.87,88.26,98.5,95.97,167.96,6.84,61.67-9.83,117.49-49.84,164.97-47.64,56.52-109.42,88.24-182.59,97-57.82,6.92-114.75,1.32-170.26-16.5-49.32-15.83-94.33-40.29-136.59-69.99-8.66-6.09-17.13-12.45-25.66-18.74-12.42-9.16-18.57-21.54-19.71-36.9-1.16-15.68-3.03-31.3-4.56-46.95-.38-3.83-.75-7.66-.96-11.51-.6-10.99,3.1-19.58,13.91-23.88,6.45-2.57,9.15-7.51,10-14.07,1.43-11.14,3.08-22.25,4.65-33.37.82-5.76,2.49-11.26,5.01-16.52,9.3-19.34,26.46-27.91,47.55-23.72,6.97,1.38,13.5,4.1,20.12,6.55,17.47,6.46,34.86,13.09,50.84,22.88,3.29,2.01,6.81,3.81,10.83,3.53,3.28-.23,4.69-2.07,3.16-5.26-1.41-2.93-3.62-5.32-6.09-7.38-5.18-4.3-10.42-8.54-15.71-12.7-3.28-2.57-6.83-4.82-10.06-7.45-6.62-5.4-6.2-8.78,1.76-12.4,16.79-7.64,32.09-4.15,45.67,7.36,12.11,10.26,22.08,22.37,28.41,37.17,1.26,2.95,2.66,5.84,3.87,8.82,2.99,7.41,8.28,12.38,16.15,13.69,17.15,2.85,33.65,8.29,50.52,12.19,12.28,2.84,24.75,3.59,37.32,3.15,1.6-.06,3.24-.07,4.78-.44,4.61-1.11,5.68-3.95,2.88-7.74-2.34-3.17-5.85-4.93-8.95-7.21-6.38-4.69-6.34-8.19.6-12.24,16.24-9.47,33.65-15.68,52.34-18.44,24.14-3.56,47.3-.04,69.87,8.66,3.01,1.16,6.02,2.3,9.28,2.33,1.96.02,3.94-.21,4.88-2.32.9-2.04-.07-3.75-1.27-5.3-2.2-2.85-5.12-4.88-8.2-6.6-37.15-20.71-76.34-27.51-117.97-16.9-11.35,2.89-21.58,8.15-30.6,15.68-2.46,2.06-5.05,3.96-7.6,5.91-4.48,3.42-9.29,3.9-14.52,1.82-21.24-8.46-35.13-28.19-34.83-47.6.19-11.88-.22-23.75,2.6-35.43,1.79-7.44,1.24-14.8-2.3-21.59-7.27-13.95-14.94-27.68-24.13-40.49-1.08-1.5-2.1-3.3-4.95-3.27-1.86,3.58-.16,7.28.3,10.88,2.31,18.24,1.93,36.5.42,54.76-.21,2.55-.68,5.11-1.37,7.57-1.83,6.51-4.83,7.82-10.57,4.56-2.5-1.42-4.73-3.31-7.13-4.92-24.21-16.25-50.1-19.33-75.49-4.99-15.88,8.97-30.83,10.68-48.5,8.5-25.35-3.12-46.32,7.46-62.18,27.65-.79,1.01-1.53,2.06-2.31,3.08-6.03,7.96-7.16,7.92-12.6-.89-8.77-14.22-17.85-28.21-28.51-41.11-32.38-39.19-72.18-68.05-119.71-86.24-46.56-17.83-94.84-25.59-144.47-22.67-68.31,4.03-129.58,27.11-182.57,71.04-24.65,20.44-45.53,44.22-63.36,70.75-8.39,12.49-9.83,12.5-19.45,1.46-16.26-18.66-37.5-26.37-61.31-23.31-17.11,2.2-31.44-.2-46.68-8.6-22.71-12.52-46.45-10.22-68.91,2.78-4.44,2.57-8.5,5.77-12.87,8.46-5.57,3.43-8.09,2.63-9.62-3.85-2.88-12.19-4.66-24.59-5.28-37.12-.54-10.94.42-21.8,1.76-32.65.29-2.37,1.37-5.04-.94-7.4-3.38,1.23-4.44,4.47-5.89,7.13-7.36,13.53-14.43,27.22-21.8,40.74-4.08,7.49-4.75,15.05-2.32,23.22,4.68,15.7,5.26,31.61,1.11,47.54-4.99,19.17-18.44,29.34-36.81,34.12-4.76,1.24-8.83-.18-12.51-3.23-5.93-4.93-12.06-9.59-18.81-13.38-19.62-11.02-40.6-15.45-63.01-13.15-22.26,2.28-43.55,7.85-63.32,18.58-5.09,2.76-10.06,5.73-14.04,10.03-1.32,1.43-2.5,3.13-1.16,5.13,1.01,1.51,2.84,1.71,4.36,1.32,4.03-1.04,8.01-2.28,11.95-3.59,36.05-12,71.38-10.14,106.01,5.43,1.75.79,3.47,1.67,5.17,2.57,11.98,6.39,12.34,9.74,2.29,18.65-2.74,2.43-7.66,4.58-5.99,8.83,1.53,3.9,6.65,3.05,10.4,3.34,8.05.63,16-.57,23.97-1.63,21.04-2.79,41.6-7.98,62.38-12.05,9.14-1.79,14.76-7.17,17.92-15.63,5-13.38,12.21-25.46,21.8-36.04,11.25-12.42,24.4-20.79,42.11-19.11,5.5.52,10.78,1.85,15.78,4.08,7.8,3.48,8.3,7.54,1.28,12.24-8.56,5.73-16.91,11.73-24.07,19.12-3.09,3.19-9.33,6.89-5.94,11.45,2.73,3.69,8.17-.71,12.15-2.48,19.94-8.87,39.84-17.82,59.77-26.71,6.21-2.77,12.71-4.59,19.5-4.95,13.7-.75,24.41,4.35,31.24,16.61,8.92,16.04,12.95,33.42,14.04,51.58.19,3.2.17,6.42.36,9.62.29,4.96,2.75,8.12,7.45,10.16,15.7,6.82,18.46,11.9,16.47,29.02-.3,2.55-.8,5.09-.91,7.65-.23,5.49-3.08,9.17-6.8,13.16-29.73,31.95-68.83,47.45-108.33,62.23-13.82,5.17-27.91,9.66-42.33,12.97-2.18.5-4.39,1.06-6.45,1.91-6.73,2.78-8.28,6.97-3.9,12.78,7.34,9.72,15.04,19.2,22.99,28.45,5.22,6.07,11.99,7.19,19.2,3.52,22.57-11.51,45.65-22.14,65.93-37.67,8.91-6.83,18.03-13.32,27.71-19.11,11.98-7.16,20.49-17.47,23.22-31.64,1.7-8.79,3.11-17.63,4.61-26.21,1.04-.54,1.68-.29,1.65.52-.61,13.5-2.67,26.8-6.11,39.85-1.59,6.06-5.46,10.77-9.72,15.26-20.31,21.44-44.43,37.82-69.82,52.43-26.2,15.07-53.5,27.89-81.92,38.2-71.05,25.79-143.66,32.62-217.85,16.71-50.84-10.9-95.54-33.93-131.72-71.61-30.43-31.69-54.23-67.89-64.3-111.28-11.69-50.41-6.19-99.49,15.2-146.7,13.41-29.59,31.84-55.6,55.32-78.07,7.47-7.15,15.83-13.07,24.33-18.83,1.83-1.24,3.78-2.91,6.15-1.68,2.52,1.3,1.72,3.73,1.58,5.98-.43,6.89-.36,6.88,6.84,7.76,1.57.19,3.18.43,4.67.94,6.67,2.31,6.76,2.38,8.64-4.35,4.75-17,9.54-33.96,16.42-50.3,16.23-38.54,43.13-66.13,81.83-82.5,43.65-18.46,88.38-23.44,134.71-12.78,3.03.7,6.06,2.26,10.05.66ZM877.97,961.32c-.65,45.86,12.36,85.03,38.1,120.08,14.45,19.67,32.27,35.64,53.45,47.72,25.51,14.55,52.8,24.84,80.96,32.89,52.15,14.91,105.16,19.49,159.09,13.23,43.04-5,84.24-16.78,124.39-32.75,24.22-9.63,45.56-23.31,63.43-42.49,34.74-37.27,53.16-81.26,54.75-132.11.7-22.33-3.51-44.11-10.17-65.36-2.97-9.48-6.72-18.72-10.05-28.09-3.46-9.7-2.13-12.01,7.8-13.7,6.33-1.07,12.67-2.04,18.99-3.17,2.52-.45,5.03-1.07,7.48-1.82,2.53-.78,5.16-2.01,4.79-5.15-.44-3.66-3.59-4.1-6.59-4.18-1.6-.04-3.2.25-4.8.3-6.41.19-12.83.31-19.24.51-12.9.42-22.9-4.45-30.17-15.4-10.87-16.37-23.59-31.17-38.43-44.18-7.16-6.27-7.71-15.76-2.18-23.43,5.47-7.58,13.08-9.92,22.03-8.72,8.66,1.16,13.55,6.58,16.27,14.48,1.85,5.35,1.21,10.73.74,16.19-.63,7.33.91,9.77,7.47,12.87,5.87,2.77,12.02,4.29,18.6,4.29,11.6,0,23.07-1.37,34.45-3.35,14.39-2.51,17.17-5.69,17.9-20.2.32-6.33,1.84-11.92,6.31-16.66,8.89-9.41,21.39-12,32.49-6.49,11.79,5.85,17.98,18.51,15.17,31.32-.83,3.75-2.23,7.38-3.1,11.12-1.4,6.08-1.54,12.17,1.61,17.8,3.7,6.61,9.63,7.39,15,2.07,1.35-1.34,2.55-2.92,3.51-4.56,14.09-24.09,22.03-50.12,20.99-78.02-1.39-37.62-14.67-70.75-41.45-97.84-31.67-32.03-69.13-47.71-114.81-41.42-54.99,7.57-100.3,47.5-113.89,101.28-3.87,15.33-5.47,30.91-4.76,46.76.37,8.13-1.79,9.77-9.75,8.2-3.45-.68-6.83-1.78-10.22-2.75-29.12-8.38-58.86-13.41-89.08-14.85-50.97-2.44-101.28,2.52-150.81,15.11-14.8,3.76-17.03,2.08-17.77-12.98-1.77-36.05-12.65-68.48-36.5-96.22-27.36-31.83-62.46-47.18-103.69-46.12-64.81,1.67-113.16,43.8-130.62,99.29-12.99,41.3-8.63,81.18,14.85,118.27,2.06,3.25,4.18,6.51,7.51,8.67,4.37,2.83,10.19,2.76,13.54-.12,3.83-3.3,1.78-6.81.61-10.53-5.12-16.33-2.64-31.73,6.59-45.98,4.3-6.64,10.71-9.8,18.73-9.96,14.75-.3,24.4,7.26,27.26,21.72.99,5.02,1.21,10.21,3.46,14.95,2.19,4.61,5.41,7.1,10.75,5.58,3.77-1.08,7.64-1.47,11.42-.43,13.42,3.67,26.74,1.88,40.09-.39,10.92-1.85,11.49-2.31,9.69-12.87-1.68-9.84,1.58-17.71,8.72-24.15,9.26-8.36,22.69-7.28,30.87,2.29,8.77,10.26,8.35,19.37-2.56,28.28-15.58,12.72-28.92,27.25-39.57,44.3-4.98,7.97-12.45,12.01-21.63,12.49-8,.42-16.03.11-24.05.14-2.56,0-5.13-.1-7.67.14-1.66.16-3.02,1.15-3.27,3.01-.24,1.77.52,3.27,2.03,4.01,2.29,1.12,4.66,2.22,7.12,2.78,6.57,1.49,13.18,2.83,19.81,3.97,11.8,2.04,12.76,3.62,8.11,14.25-1.29,2.94-2.52,5.9-3.8,8.85-11.02,25.36-17.01,51.75-16.33,77.25ZM1452.3,1634.08c2.37,26.73,6.2,36.4,26.8,50.24,27.15,18.25,54.98,35.53,83.67,51.33,3.66,2.02,7.37,3.91,11.48,4.88,4.64,1.09,9.1.61,12.71-2.58,10.66-9.42,19.28-20.63,26.63-32.71,3.13-5.14,1.23-8.93-4.7-11.31-3.55-1.43-7.36-2.21-11.08-3.21-49.29-13.18-97.04-29.69-136.76-63.5-1.66-1.41-3.42-3.47-5.88-2.6-2.99,1.06-2.62,4.07-2.86,6.57-.09.95-.02,1.92-.02,2.89ZM1385.79,489.09c-18.05,1.08-36.38,5.07-53.19,14.66-7.65,4.37-14.14,10.02-18.38,17.87-4.25,7.88-3.22,16.97,2.27,22.3,5.98,5.8,13.59,6.29,22.04,1.16,4.66-2.82,8.97-6.23,13.69-8.93,21.85-12.49,43.76-13.22,65.55.22,3.54,2.19,6.88,4.7,10.31,7.07,7.87,5.44,12.87,5.72,19.32,1.09,7.11-5.11,9.31-11.68,6.74-20.27-1.61-5.38-4.69-9.74-8.94-13.39-16.77-14.44-36.5-20.85-59.39-21.79ZM943.95,490.01c-21.96.17-45.51,8.45-61.2,21.29-4.55,3.72-8.39,7.95-10.49,13.53-2.36,6.28-1.43,12.04,3.09,17.01,4.29,4.72,9.77,5.86,15.84,4.57,4.49-.96,8.47-3.13,11.93-6.03,20-16.78,54.14-18.37,78.85.25,3.33,2.51,6.68,5.03,10.64,6.52,10.24,3.86,18.71-.57,21.39-11.19,2.11-8.36-.84-15.04-6.71-20.89-17.65-17.62-39.63-24.12-63.35-25.06ZM932.78,1236.37c4.14,1.91,7.55,3.56,11.02,5.07,33.46,14.59,68.66,24.63,102.1,39.26.58.26,1.2.46,1.82.61,2.9.68,5.9,1.19,7.56-2.09,1.4-2.77-.26-4.92-2.2-6.73-1.16-1.09-2.47-2.03-3.77-2.95-10.75-7.59-22.04-14.13-34.36-18.97-24.69-9.7-50.6-13.52-76.72-16.37-1.51-.16-3.21-.53-5.45,2.16ZM1390.79,1237.02c-6.43-3.05-10.19-1.44-13.88-.97-27.45,3.46-54.1,9.91-79.25,21.78-7.56,3.57-14.67,7.87-20.55,13.92-2.04,2.09-4.13,4.53-2.09,7.59,1.99,2.99,5.05,2.24,7.81,1.16,5.06-1.99,9.97-4.37,15.08-6.21,19.56-7.06,39.15-14.01,58.77-20.91,11.42-4.02,21.92-9.73,34.13-16.34ZM1619.87,1277.1c-18.27-20.66-103.95-26.99-132.04-8.52,21.89-.41,43.79-2.2,65.67-.5,22.27,1.72,44.29,5.28,66.37,9.03ZM844.05,1267.83c-2.66-2.82-4.69-2.75-6.52-3.11-16.99-3.36-34.15-5.89-51.41-6.77-26.26-1.34-51.76,2.61-75.69,14.21-2.11,1.02-4.62,1.77-6.41,6.06,46.46-12.25,92.51-11.49,140.02-10.39Z"/>
  <path class="cls-1" d="M1353.67,2052.53c-30.85,10.68-61.07,19.73-92.1,25.79-31.27,6.11-62.73,9.44-94.65,9.54-31.9.1-63.4-2.72-94.76-8.48-31.18-5.72-61.22-15.52-92.08-26.34,1.08,5.32,4.19,6.74,6.55,8.68,7.97,6.55,16.71,11.87,25.97,16.43,12.96,6.38,13.73,9.69,6.07,22.22-13.58,22.23-28.84,43.25-45.85,62.97-10.69,12.38-21.97,24.24-32.58,36.69-8.32,9.76-17.6,12.04-29.99,8.14-55.46-17.44-110.13-36.93-163.51-60.02-49-21.19-96.04-46.05-141.05-74.75-.54-.35-1.06-.73-1.63-1.03-12.95-6.89-16.8-17.56-13.54-31.53,2.92-12.5,5.13-25.16,8.1-37.65,11.83-49.75,28.25-98.01,47.27-145.44,4-9.97,10.5-15.37,20.93-17.47,40.15-8.07,78.8-20.85,115.56-38.94,27.99-13.78,54.7-29.71,78.71-49.83,2.7-2.26,5.44-4.54,8.4-6.44,5.33-3.44,7.55-2.91,10.86,2.71,2.28,3.86,4.13,7.98,6.13,12,36.73,73.98,96.13,121.63,173.61,147.06,73.69,24.18,147.47,21.63,219.96-5.45,54.01-20.17,99.99-52.03,134.78-98.8,11.56-15.54,20.48-32.57,28.74-50,.96-2.03,1.78-4.14,2.88-6.09,3.08-5.44,5.62-6.26,10.92-3.31,2.22,1.24,4.23,2.91,6.22,4.51,51.06,40.93,108.17,69.9,171.42,86.7,8.99,2.39,18.03,4.88,27.21,6.19,11.59,1.65,18.01,8.08,22.14,18.61,9.38,23.91,18.88,47.75,26.68,72.24,11.21,35.22,20.52,70.9,26.31,107.44.45,2.85.84,5.71,1.29,8.57,1.89,12.05-2.3,21.01-12.61,27.87-36.96,24.58-75.58,46.15-115.73,64.99-49.77,23.35-101.22,42.34-153.52,59.15-9.78,3.14-19.57,6.27-29.68,8.2-16,3.06-29.87-1.29-41.61-12.42-10.05-9.52-18.23-20.7-27.02-31.32-16.16-19.53-32.15-39.2-46.75-59.96-11.32-16.11-11.2-17.39,6.1-25.87,10.11-4.95,20.02-10.22,28.96-17.1,2.43-1.87,5.65-3.13,6.86-8.45ZM939.87,1956.49c2.81,25.41,43.95,58.22,69.33,55.46-23.43-19.27-45.68-38.17-69.33-55.46ZM1321.63,2015.19c17.45-3.78,51.3-23.16,61.01-34.48,3.75-4.37,7.42-8.88,9.65-14.29,1-2.41,1.87-5.13-.66-7.04-2.5-1.89-4.86-.29-7.03,1.15-.8.53-1.54,1.16-2.27,1.78-13.9,11.86-27.86,23.65-41.65,35.63-6,5.21-12.71,9.66-19.05,17.25Z"/>
  <path class="cls-1" d="M1163.29,1879.81c-60.95-.81-114.95-16.34-161.99-51.42-34.49-25.72-63.86-56.6-82.28-96.42-1.35-2.91-2.54-5.89-3.9-8.79-4.38-9.34-3.47-17.78,3.19-25.97,7.34-9.03,9.68-19.72,10.35-31.36,1.35-23.4,1.96-46.78,1.75-70.21-.11-12.33-2.62-24.21-6.33-35.88-1.87-5.89-4.51-11.46-9.32-15.48-8.24-6.9-8.59-15.16-4.92-24.35,6.09-15.25,13.71-29.7,22.44-43.59,40.85-65,100.36-102.41,174.86-116.57,59.56-11.32,117.6-4.79,173.45,18.99,26.51,11.29,50.16,27.14,71.03,47.07,16.05,15.32,30.93,31.63,43.58,49.94,9.18,13.28,16.46,27.48,22.7,42.31,4.45,10.59,3.17,19.55-4.9,28.22-16.06,17.26-18.72,37.65-10.56,59.1,4.06,10.67,5.23,20.92,3.08,31.94-2.23,11.41-1.82,23.01-1.49,34.56.29,10.11,3.03,19.66,7.62,28.61,2.87,5.59,2.76,10.9.31,16.62-24.94,58.19-64.79,102.51-121.3,131.71-40.8,21.08-84.3,30.15-127.39,30.97ZM951,1559.49c.36,4.47.52,8.97,1.16,13.4.41,2.83,1.33,5.63,2.37,8.3,7.09,18.29,21.6,25.81,40.74,21.17,8.23-2,15.7-5.8,22.46-10.72,31.64-23.08,48.74-54.58,52.98-93.21,1.02-9.34-.21-18.58-3.96-27.35-6.58-15.4-19.88-22.87-36.38-20.07-12.68,2.15-23.62,8.15-33.26,16.41-14.83,12.69-26.37,28.02-34.64,45.67-6.86,14.66-11.34,30-11.46,46.41ZM951.29,1675.28c-.16,6.78.42,13.16,1.8,19.45,6.71,30.57,22.43,55.67,46.42,75.59,7.46,6.19,16.08,10.63,25.37,13.41,19.56,5.86,36.08-2.63,42.91-21.8,3.53-9.91,3.76-20.11,2.39-30.4-1.62-12.16-4.98-23.87-10.22-34.96-9.29-19.66-21.42-37.18-39.14-50.33-9.41-6.98-19.61-12.21-31.4-13.62-15.04-1.8-27.08,5.04-33.56,18.66-3.68,7.74-4.83,15.89-4.57,23.99ZM1384.99,1560.86c0-6.54.03-12.01-1.11-17.37-6.7-31.57-22.4-57.78-47.35-78.25-7.99-6.56-17.17-11.26-27.34-13.62-19.52-4.53-34.38,3.88-40.59,22.81-2.94,8.97-3.71,18.12-2.65,27.53,3.42,30.24,17.11,55.63,37.62,77.32,10.87,11.5,24.12,20.14,40.1,23.52,16.93,3.58,31.5-4.29,37.83-20.38,2.88-7.3,3.71-14.89,3.49-21.57ZM1385.16,1676.94c-.13-6.17-.27-12.25-1.87-18.21-5.55-20.64-20.84-29.92-41.66-25.19-9.22,2.09-17.71,6.03-24.98,11.94-28.88,23.44-46.81,53.18-50.91,90.59-1.15,10.44.67,20.47,4.68,30.1,5.09,12.21,14.55,18.41,27.55,19.15,10.25.59,19.57-2.71,28.36-7.76,10.15-5.83,18.56-13.76,26.18-22.45,19.62-22.37,31.51-48.07,32.65-78.17ZM1168.04,1485.15c16.21.23,31.93-2.47,47.08-8.22,11.58-4.4,21.84-10.84,29.48-20.8,8.69-11.32,9.65-23.37,2.82-35.98-4.61-8.51-11.74-14.45-20.13-18.71-39.32-19.99-78.77-19.98-118.15-.12-5.75,2.9-10.89,6.76-15.22,11.6-12.68,14.21-12.64,31.8.06,46.01,7.67,8.58,17.21,14.31,27.87,18.26,14.88,5.52,30.29,8.17,46.18,7.95ZM1167.83,1849.14c12.63.23,25.01-1.71,37.07-5.04,14.37-3.98,27.7-10.21,37.82-21.72,12.36-14.04,12.23-31.12-.13-45.24-6.48-7.41-14.53-12.68-23.47-16.36-33.96-13.99-68.06-13.68-102.01.02-8.37,3.38-15.83,8.52-22.14,15.04-14.09,14.57-14.01,33.52.04,48.14,4.27,4.44,9.34,7.76,14.65,10.8,18.03,10.34,37.73,13.83,58.16,14.37ZM1143.92,1862.37c4.6,3.4,9.58,3.96,14.61,3.98,15.72.08,31.45.38,47.16,0,14.17-.35,28.05-3.18,41.61-7.25,9.64-2.89,18.33-7.8,25.57-14.85,2.3-2.24,7.14-4.57,4.58-8.24-2.05-2.93-5.9.27-8.6,1.63-35.13,17.75-72.58,24.94-111.68,24.73-4.42-.02-8.84,0-13.25,0Z"/>
  <path class="cls-1" d="M1700.56,358.32c-.63,7.42.36,13.09,1.25,18.73,6.4,40.51-5.43,76.77-26.37,110.66-7.47,12.08-18.17,21.55-29.13,30.5-6.46,5.27-13.04,10.43-19.85,15.23-6.47,4.56-10.44,4.2-16.34-1.17-3.3-3.01-6.39-6.34-9.09-9.9-8.53-11.25-17.05-22.46-27.24-32.35-6.22-6.03-5.74-8.7,1.14-13.74,5.69-4.17,11.65-7.97,17.22-12.29,42.68-33.13,52.01-84.36,30.26-131.25-10.24-22.08-24.93-41.08-41.55-58.64-15.45-16.32-32.27-31.2-49.63-45.47-2.36-1.94-6.54-3.68-5.05-7.27,1.66-4,5.67-1.56,8.54-.83,38.24,9.8,74.33,24.43,106.31,48.04,38.34,28.31,65.71,64.92,79.57,110.54,13.5,44.46,5.8,87.02-16.34,127.19-10.75,19.51-24.32,36.9-41.67,51.18-5.93,4.88-11.24,10.52-16.89,15.75-2.22,2.05-4.78,3.84-7.55,1.09-2.54-2.52-1.59-5.43.33-7.83,1.99-2.5,4.32-4.73,6.55-7.03,12.5-12.89,25.83-24.95,37.03-39.1,18.72-23.67,31.42-49.96,34.98-80.08,2.9-24.52,1.44-48.72-8.78-71.73-1.53-3.44-2.77-7.11-7.71-10.22Z"/>
  <path class="cls-1" d="M802.23,223.78c-4.28,6.7-10.59,10.18-15.8,14.73-23.99,20.99-46.23,43.55-64.36,69.91-14.64,21.28-24.52,44.19-25.1,70.56-.72,32.91,13.34,58.82,37.24,80.1,5.96,5.31,12.74,9.72,19.22,14.43,8.9,6.48,9.58,10.04,2.26,17.67-10.46,10.91-19.66,22.85-29.22,34.51-11.16,13.61-16.61,14.21-30.43,3.31-21.66-17.09-40.57-36.45-51.48-62.43-7.35-17.5-12.57-35.73-17.39-54-2.95-11.18-1.45-22.95.32-34.44.71-4.59,2.37-9.21.94-14.91-4.89,3.04-5.98,7.55-7.47,11.52-8.68,23.11-10.13,46.8-5.5,71.01,5.08,26.61,15.81,50.71,31.38,72.78,10.81,15.33,23.65,28.68,38.59,40.01,2.8,2.12,5.76,4.16,7.32,7.49.71,1.52.84,3.14-.18,4.58-1.25,1.76-3.12,2.41-5.07,1.71-1.78-.63-3.54-1.56-5.02-2.74-35.99-28.72-63.62-63.1-74.78-108.96-8.62-35.4-4.86-69.67,9.92-102.48,21.89-48.63,58.11-83.91,104.9-108.79,21.67-11.52,44.61-19.6,68.34-25.57,3.3-.83,6.68-2.56,11.36,0Z"/>
  <path class="cls-1" d="M1893.13,598.52c-.88-.71-1.32-1.34-1.87-1.47-44.04-10.42-87.7-11.55-130.45,5.95-18.93,7.75-35.54,19.15-50.32,33.23-6.51,6.2-12.63,12.8-19.18,18.93-5.66,5.3-8.77,5.11-12.03-1.35-8.39-16.63-17.44-32.85-27.17-48.74-4.11-6.7-2.64-11.05,4.4-15.25,6.32-3.77,12.97-7.07,19.71-10.04,53.06-23.39,108.43-32.47,166.27-27.38,24.4,2.14,48.34,6.26,71.97,12.51,2.79.74,5.63,1.38,8.3,2.44,6.67,2.65,8.86,6.32,8.26,13.44-.13,1.59-.44,3.18-.82,4.74-12.97,52.96-33.26,102.5-68.36,145-23.59,28.56-52.18,49.19-89.56,55.67-11.8,2.05-23.66,1.59-35.52,1.25-.95-.03-1.92-.19-2.85-.42-6.01-1.52-9.52-6.24-9.56-12.76-.03-5.93,2.02-8.25,9.62-9.61,19.81-3.56,38.29-10.36,55.41-21.1,22.15-13.9,37.81-33.44,50.06-56.08,6.58-12.16,11.92-24.87,16.26-38.01,2.51-7.61,5.06-15.25,8.17-22.62,4.93-11.68,12.96-20.54,25.12-25.14,1.47-.55,3.14-.87,4.14-3.18Z"/>
  <path class="cls-1" d="M504.73,550.61c54.97.42,91.83,4.54,126.78,19.21,13.9,5.83,27.51,12.39,41.03,19.04,9.49,4.67,10.59,8.62,4.74,17.51-9.56,14.5-18.29,29.44-25.72,45.13-.82,1.73-1.82,3.42-3.02,4.9-2.48,3.06-5.41,3.25-8.31.58-1.65-1.51-3.08-3.26-4.61-4.91-15.52-16.84-32.11-32.4-52.53-43.24-30.2-16.03-62.28-23.52-96.52-20.4-12.46,1.14-24.88,2.76-37.3,4.23-2.22.26-4.5.59-6.58,1.36-3.64,1.34-4.2,4.06-1.4,6.54,1.42,1.26,3.21,2.11,4.87,3.07,10.11,5.85,17.19,14.35,21.61,25.04,1.96,4.73,3.55,9.63,5.07,14.53,10.91,35.16,29.72,65.37,57.2,89.85,16.58,14.76,35.91,24.67,57.94,28.82,2.84.53,5.69,1.02,8.52,1.57,4.61.9,8.8,2.31,9.5,7.93.63,5-2.04,10.48-6.59,12.97-4.34,2.38-9.17,2.94-14.01,2.91-35.45-.22-66.61-11.37-92.93-35.72-29.6-27.39-49.38-61.26-65.9-97.42-9.5-20.78-16.36-42.52-23.44-64.18-.3-.91-.57-1.84-.82-2.77-3.59-13.64-1.25-18.27,12.36-21.74,35.25-9,70.92-15.17,90.03-14.82Z"/>
  <path class="cls-1" d="M524.22,628.27c13.21,1.84,27.3,7.22,40.79,14.02,21.67,10.92,38.53,27.42,52.83,46.79,5.4,7.32,6.81,14.87,3.96,23.55-3.11,9.45-5.58,19.1-8.55,28.59-3.23,10.29-6.19,12.01-17.08,10.6-48.6-6.3-79.12-34.91-97.18-78.84-1.46-3.55-2.63-7.25-3.68-10.95-5.16-18.15,7.93-34.55,28.91-33.77Z"/>
  <path class="cls-1" d="M1766.5,644.46c-3.12,5.73-5.89,10.96-8.79,16.11-3.93,6.98-4.18,7.54,1.12,13.47,3.39,3.79,4.45,7.1,2.36,12.08-2.41,5.72-.17,9.07,5.81,8.58,12.49-1.04,24.77-3.63,36.63-7.73,5.34-1.85,6.96-5.07,5.41-10.68-1.99-7.23-2.29-14.52-2.67-21.9-.53-10.28-1.81-13.09-9.37-22.24,5.82-3.34,12.19-3.84,18.35-4.94,5.71-1.02,11.49-1.26,17.27-1.05,10.83.41,13.69,4.18,10.72,14.85-3.19,11.44-7.22,22.62-12.11,33.46-5.42,12.02-11.66,23.57-19.72,34.08-19.02,24.8-44.33,38.34-75.16,41.79-11.52,1.29-17.4-2.62-21.33-13.5-2.94-8.14-5.66-16.37-8.53-24.54-2.84-8.09-2.02-15.75,2.38-23.1,5.53-9.24,12.58-17.17,21.82-22.66,9.41-5.59,18.49-11.52,26.92-18.51,2.12-1.76,4.27-3.92,8.89-3.57Z"/>
  <path class="cls-1" d="M1168.3,2263.6c-.71-.65-1.85-1.35-2.51-2.37-1.39-2.15-2.69-4.38-3.76-6.71-8.92-19.52-23.86-33.08-42.39-43.17-2.91-1.59-7.83-1.93-7.39-6.4.41-4.15,5.06-4.41,8.27-5.48,20.39-6.76,32.98-21.41,41.28-40.46,2.05-4.7,3.64-9.62,5.93-14.2,1.52-3.03,4.12-3.06,5.9-.04,1.28,2.18,2.13,4.67,2.92,7.1,7.34,22.56,21.15,39.35,43.29,48.76,1.18.5,2.37,1.01,3.47,1.66,2.92,1.74,3.37,3.91.46,5.95-2.88,2.03-5.99,3.74-9.03,5.52-18.22,10.67-32.35,25.11-41.16,44.5-1.01,2.22-1.46,5.14-5.28,5.32Z"/>
  <path class="cls-1" d="M1170.95,1136.19c-40.93.79-79.17-2.86-116.57-13.28-34.83-9.71-66.48-25.42-92.83-50.7-28.17-27.03-40.81-60.8-42.65-99.15-.85-17.78,1.7-35.28,5.78-52.49,5.95-25.14,15.41-48.95,28.89-71.07,14.87-24.41,35.92-41.79,62.16-52.59,32.62-13.42,67-20.05,101.87-23.94,54.48-6.07,108.24-1.51,161.38,11.91,56.99,14.39,95.44,49.34,116.38,103.83,9.96,25.92,16.89,52.64,16.2,80.7-.95,38.49-14.7,71.54-41.25,99.86-26,27.73-57.95,44.05-94.01,53.62-35.24,9.35-70.94,15.08-105.35,13.3ZM938.9,912.32c-4.31,2.99-4.74,6.71-5.65,9.97-11.73,42.2-4.59,81.58,19.64,117.52,16.93,25.11,40.77,42.4,68.59,54.15,38.27,16.15,78.46,24.25,119.69,26.82,48.44,3.02,96.18-2.44,142.9-15.58,35.57-10.01,65.64-28.84,88.62-58.11,22.4-28.54,31.68-61.17,29.4-97.23-.25-3.88-.76-7.72-3.3-10.88-4.22-5.24-10.42-4.34-12.65,1.95-.84,2.38-1.03,5.01-1.34,7.55-5.11,40.59-25.34,72.23-57.99,95.96-25,18.17-53.63,29-83.33,36.46-71.66,18.01-141.41,10.63-209.07-18.05-20.88-8.85-39.5-21.6-54.75-38.49-24.63-27.27-37.27-59.51-37.88-96.36-.08-5.06-.09-10.19-2.88-15.68ZM1245.87,1022.94c23.37,1.23,54.84-13.03,72.96-29.72,2.34-2.15,4.46-4.65,6.23-7.29,5.22-7.78,4.69-15.34-1.19-20.97-5.91-5.66-13.53-6.17-21.07-.79-3.88,2.77-7.27,6.29-10.69,9.66-8.72,8.57-19.03,14.19-30.99,16.5-25.3,4.89-47.77-.69-66.71-18.66-4.42-4.2-8.53-8.72-13.04-12.83-10.96-9.99-23.65-9.91-34.39.12-3.28,3.07-6.42,6.29-9.49,9.56-26.91,28.74-74.06,31.63-103.21,1.24-3.12-3.25-6.49-6.23-10.67-8.1-6.27-2.81-12.4-1.82-16.87,2.68-4.49,4.53-5.48,10.64-2.69,16.89,1.87,4.18,4.89,7.5,8.07,10.7,35.83,36.1,92.96,41.42,135.97,8.02,15.17-11.78,17.14-11.7,32.33.34,18.78,14.88,40.1,22.51,65.47,22.64ZM1259.1,928.55c20.4-.17,37.12-17.83,36.88-38.92-.23-19.47-18.44-36.58-38.76-36.41-19.66.17-35.97,17.16-36.01,37.49-.04,20.85,17.14,38.01,37.89,37.83ZM1034.13,891.25c-.14,21.28,15.13,37.19,35.7,37.2,20.28,0,38.83-17.91,38.92-37.59.08-19.37-17.79-36.92-38-37.33-20.26-.41-36.48,16.3-36.62,37.72Z"/>
  <path class="cls-1" d="M932.13,679.9c-.15,24.42-13.68,40.06-37.25,44.51-21.53,4.07-40.4-6.26-48.65-26.77-1.67-4.15-2.95-8.47-4.38-12.72-1.59-4.74-4.75-6.61-9.66-5.37-.93.24-1.88.42-2.81.64-5.76,1.37-10.92.55-14.6-4.52-3.54-4.87-3.46-10.18-1.14-15.52,4.02-9.27,13.66-11.14,21.14-4.14,8.11,7.58,8.06,7.55,15.11-1.58,2.15-2.78,4.49-5.44,6.96-7.94,15.33-15.61,38.35-17.28,55.67-3.76,12.48,9.74,20.55,21.96,19.62,37.18Z"/>
  <path class="cls-1" d="M1444.49,633.96c26.05,0,47.81,21.2,47.88,46.63.06,24.17-21.27,44.93-46.09,44.83-24.98-.09-45.33-20.43-45.42-45.4-.09-24.58,20.26-46.07,43.64-46.07Z"/>
  <path class="cls-1" d="M1381.34,651.6c7.85.22,14.06,6.95,14.02,15.17-.05,8.57-6.77,14.88-15.49,14.55-7.92-.3-13.71-7.03-13.36-15.55.34-8.41,6.62-14.41,14.84-14.17Z"/>
</svg>